<?xml version="1.0" encoding="UTF-8" standalone="no"?>
<!-- Created with Inkscape (http://www.inkscape.org/) -->

<svg
   xmlns:dc="http://purl.org/dc/elements/1.1/"
   xmlns:cc="http://creativecommons.org/ns#"
   xmlns:rdf="http://www.w3.org/1999/02/22-rdf-syntax-ns#"
   xmlns:svg="http://www.w3.org/2000/svg"
   xmlns="http://www.w3.org/2000/svg"
   xmlns:sodipodi="http://sodipodi.sourceforge.net/DTD/sodipodi-0.dtd"
   xmlns:inkscape="http://www.inkscape.org/namespaces/inkscape"
   width="453.242"
   height="241.35713"
   id="svg2"
   version="1.1"
   inkscape:version="0.48.3.1 r9886"
   sodipodi:docname="hat.svg"
   inkscape:export-filename="/home/kennydude/Dev/comparethatuni/design/letters/X.png"
   inkscape:export-xdpi="7.8307195"
   inkscape:export-ydpi="7.8307195">
  <defs
     id="defs4" />
  <sodipodi:namedview
     id="base"
     pagecolor="#ffffff"
     bordercolor="#666666"
     borderopacity="1.0"
     inkscape:pageopacity="0.0"
     inkscape:pageshadow="2"
     inkscape:zoom="1.4"
     inkscape:cx="239.42685"
     inkscape:cy="86.865171"
     inkscape:document-units="px"
     inkscape:current-layer="layer1"
     showgrid="false"
     fit-margin-top="0"
     fit-margin-left="0"
     fit-margin-right="0"
     fit-margin-bottom="0"
     inkscape:window-width="1366"
     inkscape:window-height="709"
     inkscape:window-x="0"
     inkscape:window-y="31"
     inkscape:window-maximized="1" />
  <metadata
     id="metadata7">
    <rdf:RDF>
      <cc:Work
         rdf:about="">
        <dc:format>image/svg+xml</dc:format>
        <dc:type
           rdf:resource="http://purl.org/dc/dcmitype/StillImage" />
        <dc:title></dc:title>
      </cc:Work>
    </rdf:RDF>
  </metadata>
  <g
     inkscape:label="Layer 1"
     inkscape:groupmode="layer"
     id="layer1"
     transform="translate(-123.78571,-192.57647)">
    <path
       style="fill:#000000;fill-opacity:1;stroke:none;stroke-width:1px;stroke-linecap:butt;stroke-linejoin:miter;stroke-opacity:1"
       d="m 347.85714,193.07647 210.71429,82.85714 -209.28572,79.28571 -225,-102.85714"
       id="path3050"
       inkscape:connector-curvature="0" />
    <path
       style="fill:#000000;fill-opacity:1;stroke:none;stroke-width:1px;stroke-linecap:butt;stroke-linejoin:miter;stroke-opacity:1"
       d="m 226.42857,308.79076 c 0,0 -8.33333,11.19047 -10.35714,27.85713 -1.17367,9.66547 -1.78572,29.28572 -1.78572,29.28572 0,0 27.98411,-7.05298 69.64286,16.07143 44.02492,24.43785 50.35714,50.35714 50.35714,50.35714 0,0 41.07834,-39.54113 64.28572,-42.14286 53.09523,-5.95238 69.28571,-0.71428 69.28571,-0.71428 0,0 1.94593,-19.34251 3.21429,-30.35715 2.2619,-19.64286 -6.78572,-36.07143 -6.78572,-36.07143 L 350,365.21933"
       id="path3820"
       inkscape:connector-curvature="0"
       sodipodi:nodetypes="cscscscscc" />
    <path
       style="fill:#000000;fill-opacity:1;stroke:none;stroke-width:1px;stroke-linecap:butt;stroke-linejoin:miter;stroke-opacity:1"
       d="m 545,278.79075 c 0,0 8.54575,17.64061 10.71429,30.71428 3.58363,21.60501 -6.42857,40.71428 -6.42857,40.71428 0,0 -6.95752,1.1495 -8.21429,10.00001 -1.04237,7.34064 3.21429,9.64285 3.21429,9.64285 0,0 -10.03257,13.40091 -8.21429,36.42858 1.41499,17.92014 15.71429,27.14285 15.71429,27.14285 l 24.64286,-10.35714 c 1.2874,2.67383 -10.30373,-3.83839 -15.00001,-23.21428 -4.85214,-20.01895 -7.85713,-23.92858 -7.85713,-23.92858 0,0 10.89521,-4.40632 11.42857,-9.28571 1.10499,-10.10885 -4.28572,-14.28571 -4.28572,-14.28571 0,0 11.93613,-30.37377 9.28572,-44.28572 -2.64204,-13.868 -13.57143,-33.57143 -13.57143,-33.57143"
       id="path3822"
       inkscape:connector-curvature="0"
       sodipodi:nodetypes="cscscsccscscsc" />
  </g>
</svg>
